<svg width="213" height="162" viewBox="0 0 213 162" fill="none" xmlns="http://www.w3.org/2000/svg">
<path fill-rule="evenodd" clip-rule="evenodd" d="M92.0954 30.217L92.1346 30.2821L49.3835 30.3578L50.9771 27.0865C48.1973 26.0561 45.8527 24.0351 45.8071 21.2009C45.7375 16.8883 51.0165 12.3261 55.1659 12.2477C56.1037 12.2299 57.0043 12.3917 57.8374 12.7023C58.6977 8.88689 63.5063 6.01428 67.3516 5.9416C71.6183 5.86109 76.4539 9.30868 76.5254 13.7467C76.5277 13.8877 76.5251 14.0281 76.5178 14.1676C77.7504 13.3719 79.1986 12.9007 80.7537 12.8713C85.3463 12.7845 87.6551 14.8004 90.6429 19.4992C92.635 22.6316 94.2375 26.2194 95.4507 30.2624C94.2641 30.2454 93.1457 30.2304 92.0954 30.217ZM47.6395 80.0424L47.7359 80.1824L3.82272 80.2505L3.87892 80.1496L0 80.315C3.67473 69.4799 6.9328 64.0353 9.77421 63.9817C11.712 63.9451 13.4935 64.562 14.8661 65.6107C15.3207 62.7598 19.38 60.5624 22.5961 60.5017C25.6271 60.4443 29.0106 62.3264 29.7935 64.9222C30.6815 64.6172 31.6397 64.4422 32.6408 64.4232C37.3581 64.3341 39.7256 66.1431 42.7849 70.3656C44.8246 73.1808 46.4632 76.4065 47.701 80.043C47.6806 80.0428 47.6601 80.0426 47.6395 80.0424ZM87.1643 119.515L87.2085 119.579L67.2739 119.61L67.2991 119.565L65.5384 119.64C67.2068 114.737 68.686 112.273 69.9758 112.248C70.8555 112.232 71.6641 112.511 72.2873 112.985C72.4937 111.695 74.3364 110.701 75.7966 110.673C77.1723 110.647 78.7083 111.499 79.0636 112.673C79.4667 112.535 79.9017 112.456 80.3562 112.448C82.4977 112.407 83.5724 113.226 84.961 115.136C85.8868 116.41 86.6306 117.87 87.1925 119.515C87.1831 119.515 87.1738 119.515 87.1643 119.515Z" fill="#FFDDD4"/>
<path d="M48.453 51.1399C51.7537 54.8739 53.8057 60.0101 54.5912 66.5285C54.8534 68.6894 54.8677 70.6724 54.7484 75.3093C54.691 77.543 54.6723 78.4705 54.6688 79.6899C54.655 84.3321 54.9995 87.7627 55.9533 90.7763C57.1282 94.4887 59.2048 97.2888 62.4271 99.1694C64.7049 100.499 67.0726 101.135 69.7142 101.241C71.7112 101.321 73.3587 101.155 76.7467 100.642C81.1232 99.9792 82.8933 99.8402 85.1406 100.196C88.0909 100.664 90.6071 102.116 92.9423 104.921C94.4411 106.721 95.6565 108.623 96.7215 110.754C97.6819 112.674 98.068 113.641 99.6189 117.779C101.286 122.227 102.375 124.498 104.229 126.853C106.602 129.869 109.877 132.207 114.584 134.045C114.721 134.099 114.873 134.022 114.922 133.873C114.972 133.724 114.9 133.56 114.763 133.507C110.139 131.702 106.942 129.418 104.631 126.482C102.824 124.186 101.756 121.959 100.109 117.563C98.5494 113.403 98.1597 112.428 97.1863 110.481C96.1021 108.312 94.8628 106.373 93.3348 104.538C90.917 101.634 88.2889 100.117 85.2171 99.6301C82.9022 99.2633 81.1013 99.4046 76.6735 100.075C73.3155 100.583 71.6901 100.747 69.7338 100.669C67.1695 100.567 64.8808 99.9514 62.6778 98.6658C59.5775 96.8561 57.5865 94.1718 56.4533 90.5907C55.5225 87.65 55.1837 84.2756 55.1973 79.6916C55.2008 78.4787 55.2195 77.5541 55.2768 75.3251C55.3967 70.6562 55.3825 68.656 55.1152 66.4541C54.3161 59.8219 52.2188 54.5723 48.8348 50.7441C48.7338 50.63 48.5666 50.626 48.4611 50.7353C48.3558 50.8446 48.3521 51.0257 48.453 51.1399Z" fill="#383838"/>
<path fill-rule="evenodd" clip-rule="evenodd" d="M42.3197 50.2726C38.1682 52.17 29.9071 50.5392 23.7061 45.7896C19.0805 42.2531 15.7509 36.526 15.1905 31.5841C14.6109 26.4717 15.4976 21.2989 17.7153 17.0639C20.5321 11.6922 25.3276 7.80638 30.3988 7.13201C39.4568 5.92788 50.478 15.1489 51.7898 26.7181C53.1017 38.2872 49.5615 46.9842 42.3197 50.2726ZM43.7127 49.7223L45.4305 48.5904L50.1359 51.5783C49.852 52.5193 49.2669 53.3084 48.3959 53.9238C47.5251 54.5394 45.9918 55.2622 43.7742 56.0568L43.7127 49.7223Z" fill="#F29FBD"/>
<path d="M45.7819 49.1563L43.9689 51.1548C43.8667 51.2676 43.6993 51.2693 43.5952 51.1584C43.4911 51.0478 43.4895 50.8666 43.5918 50.7538L44.9468 49.2601L43.508 50.2229C43.3839 50.3061 43.221 50.2645 43.1443 50.13C43.0675 49.9955 43.1059 49.8192 43.2301 49.7361L45.3089 48.345C45.3954 48.2872 45.5046 48.2881 45.5902 48.3473C53.183 53.6009 58.6722 55.2588 62.0721 53.3916C66.8395 50.7666 68.6904 51.63 69.122 55.4353C69.3128 57.1188 67.9992 59.1839 65.2292 61.6559C64.4376 62.3501 64.3213 63.6279 64.9806 64.4867C65.0833 64.6292 65.2186 64.7624 65.3784 64.882L70.8269 68.7895C70.9486 68.8769 70.9819 69.0545 70.9014 69.1862C70.8207 69.318 70.6569 69.354 70.5352 69.2669L65.0823 65.3561C64.8765 65.2021 64.7019 65.0302 64.569 64.8458C63.7266 63.7485 63.8761 62.1061 64.8948 61.2128C67.5341 58.8573 68.7591 56.9317 68.5974 55.5051C68.415 53.8967 68.0271 53.0003 67.2644 52.6445C66.3238 52.2058 64.7357 52.5671 62.3113 53.9019C58.7671 55.8485 53.2751 54.252 45.7819 49.1563Z" fill="#383838"/>
<path d="M37.5853 16.1116C37.591 16.1236 37.6022 16.1475 37.619 16.1834C37.6466 16.2429 37.6799 16.3146 37.7185 16.3987C37.829 16.6387 37.9615 16.9298 38.116 17.2732C38.5571 18.2536 39.0864 19.4562 39.7035 20.89C39.7652 21.0331 39.7081 21.2035 39.5758 21.2702C39.4435 21.337 39.2862 21.275 39.2245 21.1317C38.6086 19.701 38.0807 18.5014 37.6408 17.5239C37.487 17.182 37.3552 16.8924 37.2455 16.6542C37.2073 16.5708 37.1743 16.4998 37.147 16.4411C37.1306 16.406 37.1199 16.3829 37.1146 16.3716C37.0482 16.2309 37.0998 16.0586 37.2298 15.9867C37.3598 15.9149 37.5191 15.9708 37.5853 16.1116ZM22.7904 23.5606C22.7948 23.5709 22.8043 23.5925 22.8189 23.6257C22.8438 23.6817 22.8742 23.7495 22.9105 23.8296C23.0148 24.0589 23.1452 24.3389 23.3034 24.6713C23.7562 25.6223 24.3411 26.7999 25.0719 28.216C25.1431 28.3539 25.0976 28.5282 24.9702 28.6053C24.8427 28.6824 24.6818 28.633 24.6105 28.495C23.8769 27.0734 23.2892 25.8903 22.8336 24.9336C22.6739 24.5982 22.542 24.3149 22.4363 24.0822C22.3993 24.0005 22.3679 23.9309 22.3424 23.8731C22.3269 23.8382 22.3166 23.8147 22.3115 23.8027C22.2497 23.6594 22.307 23.4893 22.4393 23.4223C22.5714 23.3555 22.7287 23.4173 22.7904 23.5606Z" fill="#383838"/>
<path d="M43.7341 32.3449C43.5959 32.2938 43.4458 32.3737 43.3986 32.5233C41.52 38.4893 37.5517 40.4605 31.3788 38.4733C31.239 38.4283 31.0918 38.5146 31.0503 38.666C31.0086 38.8175 31.0883 38.9769 31.2283 39.0219C37.6632 41.0935 41.925 38.9765 43.8988 32.708C43.946 32.5584 43.8722 32.3958 43.7341 32.3449Z" fill="#383838"/>
<path d="M43.6332 16.4766L43.3164 16.6437C42.6168 17.0132 42.3263 17.9268 42.6675 18.6846L43.9804 21.5993C44.3217 22.3569 45.1654 22.6715 45.865 22.3019L46.1817 22.1348C46.8814 21.7653 47.1719 20.8517 46.8306 20.094L45.5177 17.1792C45.1765 16.4217 44.3328 16.1071 43.6332 16.4766Z" fill="white"/>
<path fill-rule="evenodd" clip-rule="evenodd" d="M150.104 160.75L80.3908 161.179C80.0016 161.182 79.6843 160.842 79.682 160.421C79.6801 160.052 79.9213 159.735 80.2552 159.667L132.261 148.964L126.496 142.245L139.444 147.485L139.954 147.38L134.689 130.036L148.994 143.703L149.664 133.756L158.231 143.703L168.074 145.011L185.943 143.703L198.205 128.215V140.587L213 125.648L206.069 150.451C204.36 156.567 199.154 160.75 193.254 160.75H150.104Z" fill="#393342"/>
<path fill-rule="evenodd" clip-rule="evenodd" d="M190.005 100.919C189.936 100.995 189.864 101.069 189.794 101.143C189.831 101.8 189.85 102.383 189.85 102.889C189.85 105.236 189.445 107.773 188.652 110.501C188.229 111.932 187.013 112.905 185.622 112.905H184.688C183.419 112.905 182.38 111.779 182.38 110.406C182.398 110.158 182.415 109.929 182.486 109.7C182.968 107.869 183.301 106.172 183.483 104.613L183.085 104.721L169.308 19.4085L171.721 16.2036L191.613 82.5695C194.064 90.0387 195.525 95.2079 195.999 98.0437C196.369 100.352 196.386 102.927 196.034 105.77C195.858 107.258 194.801 108.441 193.444 108.689L192.528 108.86C191.277 109.108 190.079 108.193 189.85 106.838C189.815 106.609 189.797 106.38 189.832 106.151C190.021 104.238 190.075 102.497 190.005 100.919Z" fill="#723CEB"/>
<path fill-rule="evenodd" clip-rule="evenodd" d="M174.54 48.0816C176.941 58.1743 178.663 65.7479 179.702 70.8023C180.742 75.8567 181.837 81.9623 182.984 89.119C184.758 94.7109 186.425 101.291 187.982 108.861C189.54 116.43 191.536 127.647 193.973 142.513H167.599L161.644 63.0651L174.54 48.0816Z" fill="#F3D1B1"/>
<path fill-rule="evenodd" clip-rule="evenodd" d="M164.593 11.2173L166.045 16.7407L170.722 15.0348L168.983 8.5492L169.33 8.30826L169.695 5.14339C169.891 1.85357 167.371 -0.222193 164.424 0.200934C161.232 0.656492 160.502 2.48464 159.748 5.91811C159.676 6.23288 159.325 6.64952 158.71 7.11271C158.557 7.2285 158.518 7.47364 158.626 7.64018C158.651 7.68635 158.68 7.7142 158.71 7.74186C159.195 8.08849 159.426 8.34756 159.429 8.48625C159.486 10.2907 160.396 11.3033 162.639 11.4176C163.182 11.4264 163.832 11.3659 164.593 11.2173Z" fill="#C298F6"/>
<path fill-rule="evenodd" clip-rule="evenodd" d="M168.183 5.40336C167.866 4.96402 167.303 4.89038 167.024 4.83506C166.709 4.78908 166.307 4.87722 165.789 5.07199C164.542 4.97108 163.606 4.69866 162.995 4.27801C162.384 3.85736 161.763 3.08055 161.134 1.94738C162.121 0.503062 163.795 -0.224342 165.437 0.0612397C165.962 0.144224 166.441 0.273376 166.846 0.402717C167.338 0.555142 167.835 0.846256 168.287 1.24382C168.453 1.38709 168.629 1.57213 168.77 1.74783C168.899 1.90045 169.07 2.1826 169.279 2.61278C169.492 3.02427 169.621 3.49147 169.656 3.97278L170.039 8.93241L167.532 8.5501C168.065 8.04552 168.354 7.65196 168.449 7.40205C168.684 6.69869 168.499 5.8427 168.183 5.40336Z" fill="#393342"/>
<path fill-rule="evenodd" clip-rule="evenodd" d="M162.599 6.2179L161.515 7.15649C161.344 7.30434 161.107 7.32303 160.918 7.20361L159.817 6.50597L160.767 5.30679C160.955 5.06985 161.283 5.03952 161.505 5.2383L162.599 6.2179Z" fill="white"/>
<path d="M166.966 6.18953L166.61 7.09034C166.554 7.23571 166.399 7.30324 166.263 7.24105C166.13 7.17905 166.068 7.01099 166.124 6.86562L166.404 6.15634L166.122 6.13955C165.976 6.13097 165.865 5.9959 165.872 5.83813C165.881 5.68037 166.004 5.55942 166.151 5.568L167.925 5.67331C168.069 5.68189 168.182 5.81677 168.173 5.97473C168.166 6.13249 168.041 6.25344 167.895 6.24466L166.966 6.18953ZM165.236 10.734C165.379 10.6997 165.52 10.7968 165.552 10.9511C165.583 11.1053 165.494 11.2583 165.351 11.2926C165.353 11.292 164.91 11.4191 164.637 11.4908C164.496 11.528 164.354 11.4338 164.318 11.2802C164.285 11.1266 164.371 10.9719 164.514 10.9347C164.776 10.8655 165.226 10.7365 165.236 10.734ZM160.004 4.7847C159.87 4.72366 159.806 4.55597 159.863 4.41022C159.919 4.26448 160.074 4.1958 160.208 4.25684L161.704 4.93598C161.84 4.99703 161.903 5.16472 161.847 5.31047C161.79 5.45621 161.635 5.52489 161.5 5.46385L160.004 4.7847ZM159.489 8.46331C159.789 8.6621 159.921 8.8748 159.912 9.06901C159.896 9.3792 159.639 9.54593 159.468 9.185C159.34 8.95378 159.361 8.70387 159.489 8.46331ZM160.636 5.37094C160.936 5.34252 161.205 5.6342 161.237 6.02261C161.269 6.41082 161.05 6.74868 160.749 6.77729C160.45 6.80572 160.18 6.51403 160.148 6.12562C160.117 5.73722 160.335 5.39937 160.636 5.37094Z" fill="#383838"/>
<path fill-rule="evenodd" clip-rule="evenodd" d="M167.539 8.42803C165.948 9.03353 165.595 10.1163 166.496 11.6789C167.93 14.1898 170.979 14.9621 173.298 13.4077C175.617 11.8535 176.33 8.55203 174.894 6.04112C174.242 4.90165 173.212 4.07047 172.014 3.6958L169.447 2.91956C169.197 4.57677 168.932 5.9236 168.67 6.9818C168.406 8.05908 168.041 8.54287 167.539 8.42803Z" fill="#393342"/>
<path fill-rule="evenodd" clip-rule="evenodd" d="M166.836 133.162L165.116 135.732C165.032 135.86 164.866 135.889 164.748 135.796C164.63 135.703 164.604 135.524 164.69 135.396L165.976 133.472L164.637 134.397C164.48 134.505 164.306 134.572 164.123 134.595C163.458 134.676 162.859 134.159 162.784 133.44C162.768 133.295 162.773 133.149 162.796 133.005C162.932 132.184 163.656 131.638 164.413 131.784L166.954 132.275L166.212 125.755L174.899 113.275L182.828 120.561L167.546 142.909C166.66 140.89 166.143 139.381 166.024 138.155C165.913 137.018 166.184 135.369 166.836 133.162ZM166.117 132.695L164.322 132.348C163.85 132.257 163.4 132.596 163.318 133.106C163.302 133.195 163.3 133.286 163.309 133.376C163.351 133.781 163.689 134.072 164.063 134.026C164.165 134.013 164.265 133.975 164.352 133.915L166.117 132.695Z" fill="#F29FBD"/>
<path fill-rule="evenodd" clip-rule="evenodd" d="M161.115 134.119L171.08 123.889L174.276 120.609L179.614 115.128C169.773 106.167 162.079 99.5627 156.535 95.3162C150.991 91.0697 145.911 87.8901 141.295 85.7777C145.658 82.7065 149.564 79.4316 153.011 75.9531C156.459 72.4744 161.322 66.9026 167.599 59.2375C170.395 55.7094 172.373 53.3007 173.536 52.0115C175.28 50.0777 176.461 45.9962 175.65 43.5223L174.17 35.4909H163.723L120.559 80.0571C117.229 83.4895 117.229 88.9252 120.559 92.3574L161.115 134.119Z" fill="#FFE9D4"/>
<path fill-rule="evenodd" clip-rule="evenodd" d="M175.122 26.3287L172.372 17.6654C171.491 14.8573 168.779 13.2566 166.112 13.9689L163.168 14.7455L158.399 36.0325L177.655 35.5678L175.192 26.5326C175.168 26.4584 175.145 26.384 175.122 26.3287Z" fill="#393342"/>
<path fill-rule="evenodd" clip-rule="evenodd" d="M173.141 147.42L170.759 146.99C170.578 146.957 170.405 146.88 170.255 146.764C169.711 146.343 169.584 145.525 169.973 144.936C170.051 144.818 170.146 144.712 170.252 144.622C170.859 144.11 171.735 144.229 172.209 144.887L173.5 146.686V142.527H187.982L190.096 154.164H166.665C167.616 152.199 168.514 150.788 169.343 149.948C170.119 149.161 171.376 148.324 173.141 147.42ZM172.912 146.799L171.791 145.238C171.497 144.83 170.953 144.756 170.576 145.074C170.511 145.13 170.452 145.195 170.403 145.269C170.185 145.601 170.255 146.061 170.562 146.298C170.646 146.364 170.743 146.407 170.845 146.426L172.912 146.799Z" fill="#F29FBD"/>
<path fill-rule="evenodd" clip-rule="evenodd" d="M94.2738 53.6202C91.4075 54.4052 89.1979 54.9308 87.6489 55.1969C85.5348 55.5593 83.403 55.6547 81.2184 55.483C79.7385 55.3686 78.5405 54.1667 78.3115 52.6024L78.1881 51.7821C77.9767 50.3323 78.8928 48.9587 80.2318 48.7298C80.4256 48.6535 80.6018 48.6535 80.778 48.6535C83.3325 48.8252 85.6229 48.7298 87.6489 48.3864C88.7044 48.2086 90.0615 47.8917 91.722 47.4411C88.2025 46.7595 86.1297 45.8934 85.5172 44.8572C84.6539 43.4264 84.5834 41.4615 85.2881 38.9433L103.337 43.2862L143.762 39.8296L160.781 16.0407C162.331 13.7896 165.167 13.1219 167.44 14.4573C169.73 15.8117 170.77 18.7687 169.854 21.4204C161.115 46.9263 154.244 58.01 146.316 59.1355C140.767 59.9316 124.869 63.0818 98.6395 68.6051C95.4237 70.1471 93.0072 71.1635 91.4015 71.6603C89.3226 72.3089 86.9618 72.5951 84.3015 72.4997C82.9273 72.4615 81.7293 71.4504 81.3417 70.0197L81.0775 69.0467C80.7251 67.7114 81.4298 66.3378 82.6631 65.9563C82.8745 65.88 83.0859 65.8609 83.2973 65.8609C86.1162 65.8609 88.5298 65.5557 90.5206 64.9452C91.8247 64.5402 93.5812 63.8086 95.7866 62.7468C95.6346 62.2834 95.4936 61.8294 95.3639 61.3847C91.864 62.6495 89.2923 63.4675 87.6489 63.8387C85.6581 64.2966 83.6673 64.411 81.6765 64.2203C80.3023 64.0677 79.1747 62.9803 78.8752 61.5113L78.6638 60.4621C78.3995 59.1077 79.1923 57.7913 80.4432 57.5052C80.6546 57.467 80.866 57.467 81.0775 57.467C83.5616 57.6387 85.7462 57.5243 87.6489 57.0855C89.1292 56.7499 91.327 56.018 94.2422 54.8894C94.2364 54.5601 94.2408 54.2394 94.2556 53.9275C94.2605 53.8249 94.2665 53.7224 94.2738 53.6202Z" fill="#723CEB"/>
<path d="M91.1679 47.6088C91.0294 47.6588 90.8797 47.5777 90.8335 47.4278C90.7873 47.278 90.8622 47.1159 91.0007 47.0659C91.0254 47.0569 91.0731 47.0398 91.1427 47.0144C91.2586 46.9724 91.3932 46.9234 91.5449 46.8681C91.9779 46.7097 92.4607 46.5321 92.9806 46.3395C94.4658 45.7883 95.951 45.2255 97.337 44.6836C97.4742 44.63 97.6257 44.7068 97.6752 44.8556C97.7247 45.0043 97.6537 45.1683 97.5165 45.2219C96.1275 45.765 94.6397 46.329 93.1518 46.8809C92.6312 47.0739 92.1478 47.2519 91.7137 47.4102C91.5618 47.4657 91.427 47.515 91.3108 47.5571C91.2408 47.5825 91.1927 47.5999 91.1679 47.6088ZM80.0822 50.2773C80.1405 50.1323 80.2963 50.0661 80.4302 50.1293C80.5639 50.1924 80.625 50.3611 80.5667 50.506C80.0138 51.8788 80.1743 52.8741 81.0346 53.5784C81.1511 53.6738 81.1742 53.8533 81.0861 53.9794C80.9982 54.1053 80.8324 54.1303 80.7159 54.0349C79.6448 53.1579 79.4381 51.8765 80.0822 50.2773ZM82.5487 67.2558C82.607 67.1108 82.7628 67.0446 82.8967 67.1078C83.0304 67.1709 83.0915 67.3396 83.0332 67.4845C82.4803 68.8573 82.6408 69.8526 83.5011 70.5569C83.6176 70.6523 83.6407 70.8318 83.5526 70.9579C83.4647 71.0838 83.2989 71.1088 83.1824 71.0134C82.1112 70.1364 81.9046 68.855 82.5487 67.2558ZM80.4938 58.6601C80.5567 58.5176 80.7145 58.4571 80.8461 58.5254C80.9779 58.5935 81.0336 58.7645 80.9705 58.907C80.3738 60.258 80.5022 61.259 81.3392 61.9953C81.4525 62.0949 81.4698 62.2752 81.3777 62.3979C81.2857 62.5205 81.1192 62.5392 81.0059 62.4394C79.9638 61.5226 79.7986 60.2341 80.4938 58.6601ZM85.2316 39.396C85.1466 39.2674 85.1741 39.0887 85.2929 38.9969C85.4118 38.905 85.5767 38.9347 85.6616 39.0633C86.4634 40.2789 87.556 40.5042 89.0317 39.735C89.1631 39.6663 89.321 39.7262 89.3844 39.8685C89.4477 40.011 89.3924 40.182 89.2609 40.2507C87.5652 41.1347 86.1916 40.8512 85.2316 39.396Z" fill="#383838"/>
<path d="M189.832 99.3105C189.838 99.1525 189.961 99.0297 190.107 99.0358C190.253 99.0421 190.366 99.175 190.361 99.333L190.097 106.582C190.091 106.74 189.968 106.863 189.822 106.857C189.676 106.851 189.563 106.718 189.568 106.56L189.832 99.3105ZM191.263 106.565C191.14 106.482 191.101 106.306 191.177 106.171C191.252 106.036 191.416 105.994 191.539 106.077C192.718 106.861 193.652 106.827 194.415 106.003C194.519 105.891 194.686 105.892 194.788 106.004C194.892 106.115 194.892 106.297 194.788 106.408C193.837 107.435 192.637 107.478 191.263 106.565Z" fill="#383838"/>
<path d="M155.902 51.7359C150.249 50.0002 147.036 52.4083 146.406 58.8487C146.39 59.0059 146.496 59.1467 146.641 59.1633C146.786 59.1801 146.916 59.0662 146.931 58.909C147.527 52.8187 150.422 50.6485 155.758 52.2864C155.899 52.3295 156.045 52.2412 156.084 52.0892C156.124 51.9371 156.043 51.779 155.902 51.7359Z" fill="#383838"/>
<path d="M141.125 85.6154L139.891 85.5868C139.746 85.5835 139.625 85.7089 139.622 85.8668C139.619 86.0248 139.734 86.1557 139.88 86.1591L141.113 86.1877C141.259 86.191 141.38 86.0656 141.383 85.9077C141.386 85.7497 141.271 85.6188 141.125 85.6154Z" fill="#383838"/>
<path d="M173.937 147.403L175.828 149.28C175.935 149.387 175.944 149.568 175.845 149.684C175.747 149.801 175.579 149.809 175.472 149.702L173.358 147.603C173.307 147.552 173.277 147.485 173.271 147.416C173.176 147.322 173.146 147.156 173.24 147.026L174.776 144.887C175.248 144.229 176.124 144.111 176.732 144.623C176.839 144.712 176.932 144.818 177.012 144.937C177.399 145.526 177.274 146.344 176.73 146.764C176.58 146.88 176.407 146.958 176.226 146.991L173.937 147.403ZM174.073 146.799L176.138 146.426C176.24 146.408 176.339 146.364 176.422 146.299C176.728 146.062 176.8 145.601 176.58 145.27C176.533 145.196 176.474 145.13 176.407 145.074C176.03 144.757 175.486 144.83 175.194 145.239L174.073 146.799Z" fill="white"/>
</svg>
